<svg xmlns="http://www.w3.org/2000/svg" viewBox="0 0 492 492" style="enable-background:new 0 0 492 492" xml:space="preserve"><path d="M34.686 1.474c-6.211 2.223-9.637 4.886-20.281 15.759C2.52 29.374.396 33.3.439 43.05c.055 12.599-7.393 4.249 97.46 109.265L191.44 246l-93.541 93.685C-6.953 444.7.47 436.378.431 448.95c-.031 10.148 2.07 13.855 15.417 27.202 13.347 13.347 17.054 15.448 27.202 15.417 12.572-.039 4.25 7.384 109.265-97.468L246 300.56l93.685 93.541C444.7 498.953 436.378 491.53 448.95 491.569c10.148.031 13.855-2.07 27.202-15.417 13.347-13.347 15.448-17.054 15.417-27.202-.039-12.572 7.384-4.25-97.468-109.265L300.56 246l93.541-93.685c104.853-105.016 97.405-96.666 97.46-109.265.045-10.142-2.054-13.846-15.409-27.202C462.779 2.476 459.081.384 448.95.459c-12.667.094-4.246-7.416-109.265 97.44L246 191.44l-93.685-93.541C48.937-5.319 56.088 1.148 44.413.33c-4.029-.283-6.583.018-9.727 1.144" fill-rule="evenodd"/></svg>