<svg width="24" height="24" fill="none" xmlns="http://www.w3.org/2000/svg"><path d="M6.685 21.23a4.012 4.012 0 0 0-.067.37c-.03.239-.126.462-.244.565-.12.105-.322.195-.442.196-.197.002-.02.065.428.153 1.209.236 1.705.255 6.12.234 2.516-.011 3.894-.033 4.12-.063.49-.066 1.015-.158 1.339-.234l.281-.067-.16-.024c-.402-.062-.621-.308-.679-.76-.036-.286-.096-.52-.134-.52-.017 0-.236.032-.489.07-.415.063-.864.07-4.758.07s-4.343-.007-4.758-.07c-.253-.038-.472-.07-.489-.07-.016 0-.047.068-.068.15" fill="#fff" fill-rule="evenodd"/></svg>