<svg width="24" height="24" fill="none" xmlns="http://www.w3.org/2000/svg"><path d="M6.388 1.724C3.78 1.939 1.884 3.582 1.385 6.06c-.128.635-.144 1.101-.144 4.38s.016 3.745.144 4.38c.448 2.225 2.116 3.867 4.308 4.242l.453.08c.085.017.087.035.103.908.014.807.024.911.106 1.12.389.989 1.51 1.423 2.445.947.121-.062 1.165-.743 2.32-1.515l2.1-1.402 2.04-.001c2.039 0 2.519-.023 3.12-.144 2.204-.444 3.791-2.031 4.235-4.235.128-.635.144-1.101.144-4.38s-.016-3.745-.144-4.38c-.395-1.964-1.701-3.449-3.564-4.057-.464-.151-.899-.232-1.511-.282-.577-.048-10.576-.045-11.152.003m11.513 1.535c1.803.292 3.045 1.573 3.299 3.401.031.222.041 1.445.032 3.98l-.013 3.66-.107.39c-.455 1.655-1.607 2.675-3.312 2.932-.296.045-.884.058-2.651.058-1.833 0-2.297.011-2.403.055-.072.03-1.138.726-2.369 1.548-1.23.821-2.287 1.5-2.349 1.51a.237.237 0 0 1-.19-.054c-.074-.068-.078-.13-.078-1.246 0-.971-.011-1.201-.062-1.324-.137-.329-.404-.487-.825-.488a5.197 5.197 0 0 1-.574-.044c-1.927-.268-3.196-1.502-3.479-3.385-.049-.322-.06-1-.06-3.819 0-2.213.015-3.536.043-3.734C3.06 4.85 4.259 3.586 6.06 3.264c.484-.086 11.311-.091 11.841-.005" fill="#9197B3" fill-rule="evenodd"/></svg>