<svg width="24" height="24" fill="none" xmlns="http://www.w3.org/2000/svg"><path d="M8.04 1.284c-1.543.084-2.88.422-3.83.966a4.56 4.56 0 0 0-1.15.887c-.952.965-1.475 2.227-1.727 4.163-.067.51-.073.926-.073 4.7s.006 4.19.073 4.7c.256 1.968.78 3.213 1.767 4.2.991.991 2.26 1.523 4.22 1.768.526.065.963.072 4.68.072 3.717 0 4.154-.007 4.68-.072 1.96-.245 3.229-.777 4.22-1.768.991-.991 1.523-2.26 1.768-4.22.065-.526.072-.963.072-4.68 0-3.717-.007-4.154-.072-4.68-.241-1.929-.772-3.214-1.728-4.183a4.56 4.56 0 0 0-1.15-.887c-.979-.561-2.255-.876-3.93-.969-.837-.046-6.965-.044-7.82.003m8.188 1.519c1.126.095 1.863.275 2.592.634.827.407 1.336.916 1.743 1.743.359.729.539 1.466.634 2.592.058.692.058 7.764 0 8.456-.093 1.099-.274 1.854-.612 2.552-.251.516-.489.845-.856 1.181-.671.615-1.577.984-2.916 1.187-.433.066-.842.072-4.813.072-3.971 0-4.38-.006-4.813-.072-1.339-.203-2.245-.572-2.916-1.187-.367-.336-.605-.665-.856-1.181-.338-.698-.519-1.453-.612-2.552-.058-.692-.058-7.764 0-8.456.095-1.126.275-1.863.634-2.592.407-.827.916-1.336 1.743-1.743.704-.347 1.483-.542 2.52-.631.603-.053 7.913-.055 8.528-.003" fill="#9197B3" fill-rule="evenodd"/></svg>