<svg width="24" height="24" fill="none" xmlns="http://www.w3.org/2000/svg"><path d="M11.5 1.336c-.635.147-.764.238-1.82 1.286-.677.673-.949.917-1.1.986-.193.089-.247.093-1.6.114-1.299.02-1.419.028-1.663.109-.658.219-1.237.79-1.481 1.46-.086.236-.092.323-.113 1.669-.022 1.368-.026 1.427-.114 1.618-.068.147-.323.431-1.005 1.12-.503.507-.962.998-1.019 1.091-.154.249-.302.726-.329 1.059-.042.522.159 1.172.492 1.59.08.1.52.56.977 1.022.53.536.857.898.903 1 .063.14.074.335.094 1.58.022 1.345.028 1.433.114 1.669a2.466 2.466 0 0 0 1.455 1.455c.236.086.324.092 1.669.114 1.243.02 1.44.031 1.578.094.1.045.49.399 1.062.965.497.492 1.005.959 1.129 1.038.124.079.366.192.538.252.263.091.38.108.733.108s.47-.017.733-.108c.172-.06.414-.173.538-.252.124-.079.632-.546 1.129-1.038.572-.566.962-.92 1.062-.965.138-.063.335-.074 1.578-.094 1.595-.026 1.659-.037 2.149-.355.445-.289.798-.729.975-1.214.086-.236.092-.324.114-1.669.02-1.243.031-1.44.094-1.578.045-.1.399-.49.965-1.062.492-.497.959-1.005 1.038-1.129.188-.294.34-.755.369-1.119a2.366 2.366 0 0 0-.244-1.186c-.128-.27-.23-.387-1.081-1.247-.695-.703-.962-1-1.029-1.144-.086-.187-.091-.252-.113-1.615-.021-1.346-.027-1.433-.113-1.669-.244-.67-.823-1.241-1.481-1.46-.244-.081-.364-.089-1.663-.109-1.353-.021-1.407-.025-1.6-.114-.151-.069-.423-.313-1.1-.986-.495-.491-.976-.94-1.069-.998-.453-.279-1.233-.407-1.751-.288m.759 1.469c.129.035.338.219 1.102.969.988.971 1.169 1.11 1.686 1.298.292.107.298.107 1.713.128 1.548.022 1.528.019 1.775.265.246.247.243.227.265 1.775.021 1.415.021 1.421.128 1.713.188.518.327.698 1.281 1.668.564.574.932.98.97 1.07a.864.864 0 0 1-.02.665c-.055.12-.37.469-1.01 1.12-.963.976-1.053 1.094-1.235 1.604-.088.248-.093.326-.113 1.68-.023 1.548-.02 1.528-.266 1.775-.247.246-.228.243-1.775.266-1.352.02-1.432.026-1.68.113-.502.179-.663.302-1.623 1.252-.981.968-1.122 1.072-1.457 1.072-.335 0-.476-.104-1.457-1.072-.96-.95-1.121-1.073-1.623-1.252-.248-.087-.328-.093-1.68-.113-1.547-.023-1.528-.02-1.775-.266-.246-.247-.243-.227-.266-1.775-.029-1.995.005-1.911-1.348-3.284-.64-.651-.955-1-1.01-1.12a.864.864 0 0 1-.02-.665c.038-.09.406-.496.97-1.07.954-.97 1.093-1.15 1.281-1.668.107-.292.107-.298.128-1.713.022-1.548.019-1.528.265-1.775.247-.246.227-.243 1.775-.265 1.415-.021 1.421-.021 1.713-.128.518-.188.698-.327 1.673-1.286.947-.931 1.065-1.02 1.354-1.024a1.18 1.18 0 0 1 .279.043" fill="#9197B3" fill-rule="evenodd"/></svg>