<svg width="24" height="24" fill="none" xmlns="http://www.w3.org/2000/svg"><path d="M10.36 2.042a9.028 9.028 0 0 0-7.348 4.86 8.99 8.99 0 0 0-.468 7.118 9.052 9.052 0 0 0 5.391 5.419c1.621.598 3.492.698 5.21.279a9.292 9.292 0 0 0 3.315-1.591l.16-.123 1.94 1.933c2.097 2.09 2.031 2.035 2.467 2.031a.953.953 0 0 0 .942-.948c.003-.428.053-.368-2.032-2.46l-1.933-1.94.123-.16a9.186 9.186 0 0 0 1.776-4.28c.088-.634.088-1.726 0-2.36a9.015 9.015 0 0 0-5.838-7.259 9.268 9.268 0 0 0-3.705-.519m1.649 2.019c2.31.347 4.223 1.736 5.276 3.828.84 1.671.951 3.722.299 5.523a7.402 7.402 0 0 1-.975 1.808c-.259.344-.978 1.068-1.33 1.338a7.057 7.057 0 0 1-6.691 1.026 7.026 7.026 0 0 1-4.384-4.853c-.274-1.092-.275-2.391-.002-3.461a7.047 7.047 0 0 1 5.004-5.053c.816-.214 1.983-.279 2.803-.156" fill-rule="evenodd" fill="#000"/></svg>